<svg xmlns="http://www.w3.org/2000/svg" viewBox="0 0 1024 1024" width="1024" height="1024">
<g transform="translate(162.0, 203.90687361419072) scale(0.7760532150776053)">
<g transform="translate(0.000000,794.000000) scale(0.100000,-0.100000)"
fill="#0A84FF" stroke="none">
<path d="M3534 7720 c-492 -36 -769 -301 -825 -788 -14 -127 -13 -127 96 -143
246 -34 405 -206 405 -439 0 -103 -5 -121 -117 -445 -126 -360 -127 -336 17
-408 318 -160 331 -164 310 -95 -17 60 -15 110 9 157 36 69 57 75 294 81 244
6 204 -18 328 195 45 77 125 214 179 305 140 239 140 239 140 266 0 14 -32 80
-71 146 -49 82 -73 135 -77 164 -19 173 177 250 298 115 65 -73 67 -73 118 -6
140 185 389 18 275 -185 -50 -91 -180 -317 -262 -455 -43 -71 -103 -173 -133
-225 -31 -52 -81 -138 -112 -190 -77 -130 -83 -124 114 -131 279 -10 360 -68
360 -257 0 -82 46 -76 -677 -80 -389 -2 -643 -7 -643 -12 0 -12 100 -70 121
-70 9 0 29 10 45 23 97 76 329 -27 294 -132 -17 -53 -29 -44 246 -181 316
-156 253 -158 594 13 326 163 306 140 233 264 -26 45 -77 130 -112 190 -275
467 -276 470 -275 593 1 182 93 356 150 283 8 -10 46 -74 86 -143 39 -69 88
-152 108 -185 67 -110 107 -180 129 -222 40 -80 49 -83 260 -83 262 -1 311
-27 319 -172 3 -49 8 -68 18 -68 38 0 660 310 688 343 25 29 19 1026 -8 1210
-62 433 -278 672 -681 754 -87 18 -2025 29 -2241 13z M1179 6620 c-68 -20
-109 -75 -109 -145 0 -43 11 -66 94 -194 238 -365 230 -344 150 -401 -534
-383 -924 -933 -1082 -1525 -38 -143 -51 -524 -24 -670 73 -380 198 -592 307
-521 52 34 58 56 61 224 9 663 369 1239 1084 1734 191 132 173 138 335 -117
161 -254 181 -276 253 -283 87 -8 141 32 175 128 130 371 304 876 387 1115 32
94 70 201 85 239 33 87 36 186 8 225 -51 71 -104 78 -1148 156 -110 9 -267 22
-349 30 -164 16 -189 17 -227 5z M6726 6454 c-9 -23 -7 -547 2 -561 4 -6 54
-40 112 -76 158 -96 174 -77 -245 -287 -361 -181 -951 -472 -1345 -663 -124
-60 -325 -158 -448 -218 -123 -60 -236 -109 -251 -109 -31 0 -186 74 -911 432
-256 127 -485 237 -509 244 -265 83 -460 -206 -279 -411 37 -42 82 -67 467
-256 758 -371 776 -381 779 -409 3 -25 -67 -118 -297 -400 -106 -129 -273
-337 -304 -378 -107 -141 -16 -168 -902 268 -894 439 -1199 586 -1239 600
-143 47 -311 -70 -324 -226 -10 -120 38 -199 163 -269 44 -24 86 -49 92 -55
10 -8 13 -174 13 -763 0 -915 7 -973 141 -1171 125 -183 212 -247 604 -441
2315 -1145 2199 -1090 2368 -1116 42 -7 123 -9 192 -6 213 10 141 -21 1425
615 201 99 588 291 861 425 569 281 614 310 743 487 158 214 166 276 166 1205
0 409 3 750 6 759 3 8 117 70 252 137 136 67 343 169 461 227 404 198 432 313
160 652 -133 167 -513 647 -554 700 -325 430 -405 516 -565 609 -69 41 -141
83 -160 96 -38 23 -168 99 -265 152 -33 19 -89 52 -125 75 -195 122 -274 159
-284 132z m752 -1103 c10 -5 69 -75 132 -156 63 -81 153 -195 200 -254 47 -59
121 -154 165 -211 44 -56 102 -127 128 -158 48 -56 64 -90 54 -116 -5 -13
-507 -267 -1022 -516 -99 -48 -344 -168 -545 -267 -882 -434 -869 -428 -895
-412 -20 12 -73 72 -130 148 -21 28 -196 246 -434 540 -78 95 -141 180 -141
188 0 23 32 40 755 393 121 59 391 192 600 295 209 102 529 259 710 348 182
88 339 167 350 174 23 15 49 17 73 4z m-2597 -1928 c20 -21 44 -50 55 -64 10
-15 91 -116 179 -224 88 -109 193 -239 233 -288 216 -271 170 -279 1118 186
412 202 759 367 771 367 34 0 34 2 31 -665 -4 -784 15 -731 -328 -902 -261
-129 -1036 -512 -1415 -698 -176 -86 -392 -192 -480 -236 -187 -91 -197 -95
-219 -74 -16 17 -26 2577 -10 2619 10 25 27 19 65 -21z m-597 5 c8 -32 6
-2512 -2 -2568 -9 -57 -22 -60 -109 -19 -88 41 -1475 726 -2072 1022 -275 137
-265 107 -269 877 -1 338 0 625 3 638 8 35 39 28 170 -38 1058 -529 1396 -683
1485 -678 115 6 138 26 360 303 114 141 271 336 341 423 53 65 82 78 93 40z
M5457 5293 c-12 -11 -8 -31 8 -37 20 -7 65 14 65 31 0 14 -61 19 -73 6z"/>
</g>
</g>
</svg>